<svg xmlns="http://www.w3.org/2000/svg" width="1200" height="700" viewBox="0 0 1200 700"><rect width="100%" height="100%" fill="#F8F7FC"/><path fill="#424242" d="M322.055 288.63v15.58h-30.74v86.36h-18.96v-86.36h-30.74v-15.58zm48.86 83.26v-12.2q-7.55.35-12.69 1.31-5.15.95-8.25 2.43t-4.44 3.45q-1.34 1.98-1.34 4.3 0 4.58 2.71 6.56 2.72 1.97 7.09 1.97 5.36 0 9.27-1.94 3.91-1.93 7.65-5.88m-36.8-38-3.11-5.57q12.48-11.42 30.04-11.42 6.34 0 11.35 2.08 5 2.08 8.46 5.78 3.45 3.7 5.25 8.85 1.8 5.14 1.8 11.28v45.68h-7.9q-2.47 0-3.81-.74t-2.11-3l-1.55-5.21q-2.75 2.46-5.36 4.33t-5.43 3.14-6.03 1.94q-3.2.67-7.08.67-4.58 0-8.46-1.24-3.88-1.23-6.7-3.7-2.82-2.46-4.37-6.13t-1.55-8.53q0-2.75.92-5.46.91-2.72 2.99-5.19 2.08-2.46 5.4-4.65 3.31-2.19 8.14-3.81t11.24-2.64q6.42-1.02 14.67-1.23v-4.23q0-7.27-3.1-10.76-3.11-3.49-8.96-3.49-4.23 0-7.01.99-2.79.99-4.9 2.22-2.12 1.24-3.85 2.22-1.72.99-3.84.99-1.83 0-3.1-.95t-2.04-2.22m87.56 5.5v32.43q2.96 3.59 6.45 5.07t7.37 1.48q4.01 0 7.22-1.44 3.21-1.45 5.47-4.51 2.25-3.07 3.45-7.83t1.2-11.39q0-11.91-3.95-17.23-3.95-5.33-11.35-5.33-5.01 0-8.74 2.3-3.74 2.29-7.12 6.45m0-53.58v41.31q4.37-4.58 9.69-7.3 5.32-2.71 12.16-2.71 6.28 0 11.32 2.47 5.04 2.46 8.6 7.08t5.46 11.18q1.91 6.55 1.91 14.73 0 8.81-2.19 16t-6.24 12.31q-4.05 5.11-9.76 7.93t-12.69 2.82q-3.39 0-6.14-.67t-5.07-1.87q-2.33-1.2-4.27-2.93-1.94-1.72-3.7-3.84l-.78 4.87q-.42 1.83-1.44 2.6-1.02.78-2.78.78h-11.5V285.81zm76.35 60.27h32.85q0-3.38-.95-6.38-.95-2.99-2.86-5.25-1.9-2.25-4.82-3.56-2.93-1.3-6.81-1.3-7.54 0-11.88 4.3-4.33 4.3-5.53 12.19m44.41 10.51h-44.76q.42 5.57 1.97 9.62 1.55 4.06 4.09 6.7t6.03 3.95q3.49 1.3 7.72 1.3t7.29-.99q3.07-.98 5.36-2.18t4.02-2.19q1.73-.98 3.35-.98 2.18 0 3.24 1.62l5.01 6.34q-2.89 3.39-6.49 5.68-3.59 2.29-7.51 3.66-3.91 1.38-7.96 1.94-4.06.57-7.86.57-7.55 0-14.03-2.51-6.49-2.5-11.28-7.4-4.8-4.9-7.55-12.12-2.75-7.23-2.75-16.75 0-7.4 2.4-13.92t6.87-11.35q4.48-4.83 10.93-7.65t14.56-2.82q6.84 0 12.62 2.18 5.78 2.19 9.94 6.38 4.16 4.2 6.52 10.3t2.36 13.92q0 3.95-.84 5.32-.85 1.38-3.25 1.38m17.35-70.78h17.41v104.76h-17.41zm73.03 86.08v-12.2q-7.54.35-12.69 1.31-5.14.95-8.24 2.43-3.11 1.48-4.45 3.45-1.33 1.98-1.33 4.3 0 4.58 2.71 6.56 2.71 1.97 7.08 1.97 5.36 0 9.28-1.94 3.91-1.93 7.64-5.88m-36.8-38-3.1-5.57q12.48-11.42 30.03-11.42 6.35 0 11.36 2.08 5 2.08 8.46 5.78 3.45 3.7 5.25 8.85 1.8 5.14 1.8 11.28v45.68h-7.9q-2.47 0-3.81-.74t-2.11-3l-1.55-5.21q-2.75 2.46-5.36 4.33t-5.43 3.14-6.03 1.94-7.08.67q-4.59 0-8.46-1.24-3.88-1.23-6.7-3.7-2.82-2.46-4.37-6.13t-1.55-8.53q0-2.75.91-5.46.92-2.72 3-5.19 2.08-2.46 5.39-4.65 3.32-2.19 8.15-3.81t11.24-2.64q6.42-1.02 14.66-1.23v-4.23q0-7.27-3.1-10.76t-8.95-3.49q-4.23 0-7.02.99-2.78.99-4.9 2.22-2.11 1.24-3.84 2.22-1.72.99-3.84.99-1.83 0-3.1-.95t-2.05-2.22m171.46-30.18h-45.26v30.18h38.21v15.16h-38.21v41.52h-19.04V288.63h64.3zm13.32 14.53h17.49v72.33h-17.49zm19.89-21.08q0 2.25-.92 4.23-.92 1.97-2.43 3.45-1.52 1.48-3.56 2.36-2.05.88-4.37.88-2.26 0-4.27-.88t-3.49-2.36-2.36-3.45q-.88-1.98-.88-4.23 0-2.33.88-4.37.88-2.05 2.36-3.53t3.49-2.36 4.27-.88q2.32 0 4.37.88 2.04.88 3.56 2.36 1.51 1.48 2.43 3.53.92 2.04.92 4.37m32.78 42.23v32.43q2.96 3.59 6.45 5.07t7.58 1.48q3.95 0 7.12-1.48t5.39-4.51 3.42-7.65 1.2-10.89q0-6.35-1.02-10.75-1.03-4.41-2.93-7.16t-4.62-4.02q-2.71-1.27-6.17-1.27-5.42 0-9.23 2.3-3.81 2.29-7.19 6.45m-2.33-17.98 1.41 6.7q4.44-5.01 10.08-8.11t13.26-3.1q5.92 0 10.82 2.46 4.9 2.47 8.46 7.16t5.5 11.56q1.94 6.88 1.94 15.76 0 8.11-2.19 15.02-2.18 6.9-6.24 11.98-4.05 5.08-9.8 7.93-5.74 2.86-12.86 2.86-6.07 0-10.37-1.87t-7.68-5.18v29.61h-17.42v-95.95h10.65q3.38 0 4.44 3.17m78.75 24.67h32.85q0-3.38-.95-6.38-.95-2.99-2.85-5.25-1.91-2.25-4.83-3.56-2.93-1.3-6.81-1.3-7.54 0-11.88 4.3-4.33 4.3-5.53 12.19m44.41 10.51h-44.76q.42 5.57 1.97 9.62 1.55 4.06 4.09 6.7t6.03 3.95q3.49 1.3 7.72 1.3t7.29-.99q3.07-.98 5.36-2.18t4.02-2.19q1.73-.98 3.35-.98 2.19 0 3.24 1.62l5.01 6.34q-2.89 3.39-6.49 5.68-3.59 2.29-7.51 3.66-3.91 1.38-7.96 1.94-4.06.57-7.86.57-7.55 0-14.03-2.51-6.49-2.5-11.28-7.4-4.8-4.9-7.55-12.12-2.75-7.23-2.75-16.75 0-7.4 2.4-13.92t6.87-11.35q4.48-4.83 10.93-7.65t14.56-2.82q6.84 0 12.62 2.18 5.78 2.19 9.94 6.38 4.16 4.2 6.52 10.3t2.36 13.92q0 3.95-.84 5.32-.85 1.38-3.25 1.38"/></svg>